<svg width="290" height="331" viewBox="0 0 290 331" fill="none" xmlns="http://www.w3.org/2000/svg">
<g filter="url(#filter0_d_9_10)">
<rect x="8" y="6" width="270" height="311" rx="40" fill="#C68FE6"/>
</g>
<rect x="8" y="6" width="254" height="311" rx="40" fill="#6C48C5"/>
<path d="M124.341 91.6344C124.238 91.5652 124.114 91.5257 123.988 91.5337C123.863 91.5416 123.746 91.5952 123.662 91.6848C123.579 91.7745 123.533 91.8945 123.534 92.0206C123.535 92.1468 123.583 92.2676 123.659 92.3656C123.659 92.3656 123.659 92.3656 123.659 92.3656C125.479 94.6816 127.165 96.8906 128.921 99.1932C143.483 118.643 157.929 139.014 160.657 160.423C164.029 183.824 147.97 206.331 129.713 225.446C127.709 227.544 125.802 229.517 123.702 231.599C123.614 231.687 123.552 231.802 123.537 231.927C123.522 232.053 123.553 232.178 123.627 232.277C123.701 232.376 123.811 232.443 123.936 232.465C124.061 232.486 124.188 232.46 124.298 232.401C124.298 232.401 124.298 232.401 124.298 232.401C126.906 230.982 129.32 229.62 131.835 228.078C154.196 214.691 178.557 190.624 174.557 158.745C170.596 130.812 150.849 111.406 131.427 96.6573C129.077 94.9033 126.783 93.2971 124.341 91.6344Z" fill="#FFF7F7"/>
<path d="M156.392 66.6902C156.303 66.6023 156.186 66.5426 156.059 66.5306C155.932 66.5186 155.807 66.5544 155.709 66.6316C155.611 66.7088 155.548 66.8222 155.53 66.9484C155.512 67.0746 155.543 67.2023 155.608 67.3098C155.608 67.3098 155.608 67.3098 155.608 67.3098C157.509 70.4469 159.267 73.4397 161.098 76.5816C176.38 103.118 189.997 130.622 192.626 159.25C195.957 190.517 181.969 221.294 162.14 248.076C159.977 251.02 157.923 253.757 155.645 256.648C155.567 256.747 155.522 256.871 155.525 256.999C155.528 257.126 155.579 257.247 155.668 257.335C155.757 257.423 155.878 257.473 156.005 257.475C156.133 257.477 156.257 257.431 156.355 257.352C156.355 257.352 156.355 257.352 156.355 257.352C159.235 255.037 161.887 252.826 164.645 250.346C189.797 228.466 210.47 194.626 206.57 157.997C203.402 124.84 184.875 97.001 163.96 74.4555C161.458 71.765 159.008 69.2756 156.392 66.6902Z" fill="#FFF7F7"/>
<path d="M188.393 41.6915C188.305 41.6005 188.188 41.5391 188.06 41.5261C187.933 41.513 187.806 41.5487 187.707 41.6264C187.608 41.7041 187.543 41.8185 187.525 41.9456C187.508 42.0727 187.539 42.2013 187.607 42.3085C187.607 42.3085 187.607 42.3085 187.607 42.3085C189.936 46.0106 192.146 49.7496 194.255 53.5427C212.324 86.167 222.644 121.919 224.711 157.989C226.919 197.261 218.489 237.625 195.435 271.214C192.987 274.786 190.408 278.248 187.644 281.649C187.564 281.748 187.517 281.872 187.521 282.001C187.524 282.13 187.575 282.251 187.666 282.34C187.756 282.428 187.878 282.478 188.006 282.479C188.135 282.481 188.259 282.432 188.356 282.351C188.356 282.351 188.356 282.351 188.356 282.351C191.736 279.513 194.953 276.532 198.048 273.36C227.445 243.597 241.289 199.356 238.69 157.212C236.548 118.435 221.459 80.7351 197.196 51.5276C194.378 48.1285 191.447 44.8538 188.393 41.6915Z" fill="#FFF7F7"/>
<path d="M56.9064 136.94L49.4364 158H43.0164L35.5464 136.94H41.0064L46.2264 152.84L51.4764 136.94H56.9064ZM74.8304 149.36C74.8304 149.84 74.8004 150.34 74.7404 150.86H63.1304C63.2104 151.9 63.5404 152.7 64.1204 153.26C64.7204 153.8 65.4504 154.07 66.3104 154.07C67.5904 154.07 68.4804 153.53 68.9804 152.45H74.4404C74.1604 153.55 73.6504 154.54 72.9104 155.42C72.1904 156.3 71.2804 156.99 70.1804 157.49C69.0804 157.99 67.8504 158.24 66.4904 158.24C64.8504 158.24 63.3904 157.89 62.1104 157.19C60.8304 156.49 59.8304 155.49 59.1104 154.19C58.3904 152.89 58.0304 151.37 58.0304 149.63C58.0304 147.89 58.3804 146.37 59.0804 145.07C59.8004 143.77 60.8004 142.77 62.0804 142.07C63.3604 141.37 64.8304 141.02 66.4904 141.02C68.1104 141.02 69.5504 141.36 70.8104 142.04C72.0704 142.72 73.0504 143.69 73.7504 144.95C74.4704 146.21 74.8304 147.68 74.8304 149.36ZM69.5804 148.01C69.5804 147.13 69.2804 146.43 68.6804 145.91C68.0804 145.39 67.3304 145.13 66.4304 145.13C65.5704 145.13 64.8404 145.38 64.2404 145.88C63.6604 146.38 63.3004 147.09 63.1604 148.01H69.5804ZM82.6668 144.05C83.2668 143.13 84.0168 142.41 84.9168 141.89C85.8168 141.35 86.8168 141.08 87.9168 141.08V146.51H86.5068C85.2268 146.51 84.2668 146.79 83.6268 147.35C82.9868 147.89 82.6668 148.85 82.6668 150.23V158H77.5368V141.26H82.6668V144.05ZM97.1788 158.24C95.7188 158.24 94.4188 157.99 93.2788 157.49C92.1388 156.99 91.2388 156.31 90.5788 155.45C89.9188 154.57 89.5488 153.59 89.4688 152.51H94.5388C94.5988 153.09 94.8688 153.56 95.3488 153.92C95.8288 154.28 96.4188 154.46 97.1188 154.46C97.7588 154.46 98.2488 154.34 98.5888 154.1C98.9488 153.84 99.1288 153.51 99.1288 153.11C99.1288 152.63 98.8788 152.28 98.3788 152.06C97.8788 151.82 97.0688 151.56 95.9488 151.28C94.7488 151 93.7488 150.71 92.9488 150.41C92.1488 150.09 91.4588 149.6 90.8788 148.94C90.2988 148.26 90.0088 147.35 90.0088 146.21C90.0088 145.25 90.2688 144.38 90.7888 143.6C91.3288 142.8 92.1088 142.17 93.1288 141.71C94.1688 141.25 95.3988 141.02 96.8188 141.02C98.9188 141.02 100.569 141.54 101.769 142.58C102.989 143.62 103.689 145 103.869 146.72H99.1288C99.0488 146.14 98.7888 145.68 98.3488 145.34C97.9288 145 97.3688 144.83 96.6688 144.83C96.0688 144.83 95.6088 144.95 95.2888 145.19C94.9688 145.41 94.8088 145.72 94.8088 146.12C94.8088 146.6 95.0588 146.96 95.5588 147.2C96.0788 147.44 96.8788 147.68 97.9588 147.92C99.1988 148.24 100.209 148.56 100.989 148.88C101.769 149.18 102.449 149.68 103.029 150.38C103.629 151.06 103.939 151.98 103.959 153.14C103.959 154.12 103.679 155 103.119 155.78C102.579 156.54 101.789 157.14 100.749 157.58C99.7288 158.02 98.5388 158.24 97.1788 158.24ZM122.877 149.36C122.877 149.84 122.847 150.34 122.787 150.86H111.177C111.257 151.9 111.587 152.7 112.167 153.26C112.767 153.8 113.497 154.07 114.357 154.07C115.637 154.07 116.527 153.53 117.027 152.45H122.487C122.207 153.55 121.697 154.54 120.957 155.42C120.237 156.3 119.327 156.99 118.227 157.49C117.127 157.99 115.897 158.24 114.537 158.24C112.897 158.24 111.437 157.89 110.157 157.19C108.877 156.49 107.877 155.49 107.157 154.19C106.437 152.89 106.077 151.37 106.077 149.63C106.077 147.89 106.427 146.37 107.127 145.07C107.847 143.77 108.847 142.77 110.127 142.07C111.407 141.37 112.877 141.02 114.537 141.02C116.157 141.02 117.597 141.36 118.857 142.04C120.117 142.72 121.097 143.69 121.797 144.95C122.517 146.21 122.877 147.68 122.877 149.36ZM117.627 148.01C117.627 147.13 117.327 146.43 116.727 145.91C116.127 145.39 115.377 145.13 114.477 145.13C113.617 145.13 112.887 145.38 112.287 145.88C111.707 146.38 111.347 147.09 111.207 148.01H117.627ZM44.4255 177.44C44.4255 175.36 44.8755 173.51 45.7755 171.89C46.6755 170.25 47.9255 168.98 49.5255 168.08C51.1455 167.16 52.9755 166.7 55.0155 166.7C57.5155 166.7 59.6555 167.36 61.4355 168.68C63.2155 170 64.4055 171.8 65.0055 174.08H59.3655C58.9455 173.2 58.3455 172.53 57.5655 172.07C56.8055 171.61 55.9355 171.38 54.9555 171.38C53.3755 171.38 52.0955 171.93 51.1155 173.03C50.1355 174.13 49.6455 175.6 49.6455 177.44C49.6455 179.28 50.1355 180.75 51.1155 181.85C52.0955 182.95 53.3755 183.5 54.9555 183.5C55.9355 183.5 56.8055 183.27 57.5655 182.81C58.3455 182.35 58.9455 181.68 59.3655 180.8H65.0055C64.4055 183.08 63.2155 184.88 61.4355 186.2C59.6555 187.5 57.5155 188.15 55.0155 188.15C52.9755 188.15 51.1455 187.7 49.5255 186.8C47.9255 185.88 46.6755 184.61 45.7755 182.99C44.8755 181.37 44.4255 179.52 44.4255 177.44ZM67.1271 179.6C67.1271 177.88 67.4471 176.37 68.0871 175.07C68.7471 173.77 69.6371 172.77 70.7571 172.07C71.8771 171.37 73.1271 171.02 74.5071 171.02C75.6871 171.02 76.7171 171.26 77.5971 171.74C78.4971 172.22 79.1871 172.85 79.6671 173.63V171.26H84.7971V188H79.6671V185.63C79.1671 186.41 78.4671 187.04 77.5671 187.52C76.6871 188 75.6571 188.24 74.4771 188.24C73.1171 188.24 71.8771 187.89 70.7571 187.19C69.6371 186.47 68.7471 185.46 68.0871 184.16C67.4471 182.84 67.1271 181.32 67.1271 179.6ZM79.6671 179.63C79.6671 178.35 79.3071 177.34 78.5871 176.6C77.8871 175.86 77.0271 175.49 76.0071 175.49C74.9871 175.49 74.1171 175.86 73.3971 176.6C72.6971 177.32 72.3471 178.32 72.3471 179.6C72.3471 180.88 72.6971 181.9 73.3971 182.66C74.1171 183.4 74.9871 183.77 76.0071 183.77C77.0271 183.77 77.8871 183.4 78.5871 182.66C79.3071 181.92 79.6671 180.91 79.6671 179.63ZM95.3184 188.24C93.8584 188.24 92.5584 187.99 91.4184 187.49C90.2784 186.99 89.3784 186.31 88.7184 185.45C88.0584 184.57 87.6884 183.59 87.6084 182.51H92.6784C92.7384 183.09 93.0084 183.56 93.4884 183.92C93.9684 184.28 94.5584 184.46 95.2584 184.46C95.8984 184.46 96.3884 184.34 96.7284 184.1C97.0884 183.84 97.2684 183.51 97.2684 183.11C97.2684 182.63 97.0184 182.28 96.5184 182.06C96.0184 181.82 95.2084 181.56 94.0884 181.28C92.8884 181 91.8884 180.71 91.0884 180.41C90.2884 180.09 89.5984 179.6 89.0184 178.94C88.4384 178.26 88.1484 177.35 88.1484 176.21C88.1484 175.25 88.4084 174.38 88.9284 173.6C89.4684 172.8 90.2484 172.17 91.2684 171.71C92.3084 171.25 93.5384 171.02 94.9584 171.02C97.0584 171.02 98.7084 171.54 99.9084 172.58C101.128 173.62 101.828 175 102.008 176.72H97.2684C97.1884 176.14 96.9284 175.68 96.4884 175.34C96.0684 175 95.5084 174.83 94.8084 174.83C94.2084 174.83 93.7484 174.95 93.4284 175.19C93.1084 175.41 92.9484 175.72 92.9484 176.12C92.9484 176.6 93.1984 176.96 93.6984 177.2C94.2184 177.44 95.0184 177.68 96.0984 177.92C97.3384 178.24 98.3484 178.56 99.1284 178.88C99.9084 179.18 100.588 179.68 101.168 180.38C101.768 181.06 102.078 181.98 102.098 183.14C102.098 184.12 101.818 185 101.258 185.78C100.718 186.54 99.9284 187.14 98.8884 187.58C97.8684 188.02 96.6784 188.24 95.3184 188.24ZM114.567 183.65V188H111.957C110.097 188 108.647 187.55 107.607 186.65C106.567 185.73 106.047 184.24 106.047 182.18V175.52H104.007V171.26H106.047V167.18H111.177V171.26H114.537V175.52H111.177V182.24C111.177 182.74 111.297 183.1 111.537 183.32C111.777 183.54 112.177 183.65 112.737 183.65H114.567Z" fill="white"/>
<defs>
<filter id="filter0_d_9_10" x="0.8" y="0.8" width="288.4" height="329.4" filterUnits="userSpaceOnUse" color-interpolation-filters="sRGB">
<feFlood flood-opacity="0" result="BackgroundImageFix"/>
<feColorMatrix in="SourceAlpha" type="matrix" values="0 0 0 0 0 0 0 0 0 0 0 0 0 0 0 0 0 0 127 0" result="hardAlpha"/>
<feMorphology radius="2" operator="dilate" in="SourceAlpha" result="effect1_dropShadow_9_10"/>
<feOffset dx="2" dy="4"/>
<feGaussianBlur stdDeviation="3.6"/>
<feComposite in2="hardAlpha" operator="out"/>
<feColorMatrix type="matrix" values="0 0 0 0 0.423529 0 0 0 0 0.282353 0 0 0 0 0.772549 0 0 0 0.25 0"/>
<feBlend mode="normal" in2="BackgroundImageFix" result="effect1_dropShadow_9_10"/>
<feBlend mode="normal" in="SourceGraphic" in2="effect1_dropShadow_9_10" result="shape"/>
</filter>
</defs>
</svg>
